<svg version="1" xmlns="http://www.w3.org/2000/svg" width="1574.667" height="1574.667" viewBox="0 0 1181.000000 1181.000000"><path d="M657 197c-1.1 1.1-2 2.7-2 3.6 0 1 2 8.6 4.5 17 2.5 8.3 4.5 15.7 4.5 16.3 0 .7-3.7 1.1-10.9 1.1-8.6 0-11.3.3-12.5 1.6-1.4 1.4-1.6 6.9-1.6 45.7l-.1 44.2-22.7-23.3c-17.6-18-23.3-23.2-25.2-23.2-1.9 0-5.7 3.3-16 14l-13.5 14h-28.1c-33.9 0-31.4-1.1-31.4 13.8V332h-23v-28.9c0-25-.2-29.2-1.6-30.5-1.3-1.4-5.8-1.6-33.8-1.6h-32.2l.8-8.4c.7-9 2.7-17.6 5.9-26.3 1.9-5 2-5.6.5-7.8L417 226H286l-1.5 2.3c-1.3 2.1-1.5 21.3-1.3 174.6l.3 172.3 2.4 1.9c2.9 2.4 5.3 2.4 8.2 0l2.4-1.9.3-168.1.2-168.1h20v168c0 166.7 0 168 2 170 1.1 1.1 3.1 2 4.5 2s3.4-.9 4.5-2c2-2 2-3.3 2-170V239h73.2l-.7 2.7c-2 7.8-3.5 16.2-3.5 19.5v3.8h-47.1l-2.5 2.6c-2 1.9-2.4 3.1-1.9 5.2 1.2 5 2.1 5.2 27 5.2h23.2l.7 10.7c.4 6 1 13.4 1.5 16.5l.8 5.8h-24.9c-23.5 0-24.9.1-26.8 2-2.7 2.7-2.5 5.6.5 8.5l2.4 2.5h50.8l4.1 15.7c2.2 8.7 4.4 16.6 4.7 17.5.7 1.7-1.3 1.8-32.4 1.8h-33.2l-2.4 2.5c-3 2.9-3.2 5.8-.5 8.5 1.6 1.6 3.3 2 9 2h7l.2 101.6.3 101.6 2.4 1.9c2.9 2.4 5.3 2.4 8.2 0l2.4-1.9.3-101.6.2-101.6h430v101.5c0 100.2 0 101.5 2 103.5 2.6 2.6 6.4 2.6 9 0 2-2 2-3.3 2-61v-59h26l.2 59.1.3 59.1 2.4 1.9c2.9 2.4 5.3 2.4 8.2 0l2.4-1.9.3-63.6c.2-62.6.2-63.6-1.8-65.6-1.9-1.9-3.3-2-20-2h-18v-72h8.8c7.3 0 9.2-.3 10.5-1.8 2.1-2.3 2.2-6.2.3-8.8-1.4-1.8-3.1-1.9-30-2.2l-28.6-.3V330h25.4c25.2 0 25.5 0 27-2.2 1.3-1.9 1.6-5.8 1.6-23V284h48v145.5c0 144.2 0 145.5 2 147.5 2.6 2.6 6.4 2.6 9 0 2-2 2-3.3 2-153 0-148.2 0-150.9-1.9-152-3-1.6-65.9-1.3-69.1.3l-2.5 1.3-.3 21.7-.2 21.7h-41v-38.4c0-22.2-.4-39.5-1-41-.9-2.5-1.2-2.5-11.8-2.8l-10.9-.3 4.4-15.5c2.3-8.5 4.3-16.7 4.3-18.2 0-5.8.3-5.8-53.7-5.8-48 0-49.4.1-51.3 2zm89.8 12.7c-.3 1-2 7.1-3.8 13.5l-3.3 11.8h-30.9c-16.9 0-30.8-.3-30.8-.8 0-.4-1.8-6.4-3.9-13.5l-3.8-12.7h38.4c36.2 0 38.5.1 38.1 1.7zm16.2 93.8V359h-91.5l-9.7-9.7-9.8-9.8V248h111v55.5zm-297 8.2c.1 20.3.4 28.2 1.3 29.4 2.7 3.5 5.4 3.9 25.1 3.9 16.4 0 19.7-.3 21-1.6 1.3-1.2 1.6-3.8 1.6-12V321h33.5l-19 19-19 19-42.4-.2-42.4-.3-2.8-9.6c-5.7-19.9-9.8-41.7-11.2-59.7l-.4-5.2H466v27.7zM622.5 328l31 31h-124l11.5-11.8c26.6-27.2 49.5-50.2 50-50.2.3 0 14.5 13.9 31.5 31z"/><path d="M671.4 267.6c-2 1.9-2.4 3.1-1.9 5.2 1.2 5.2 1 5.2 43 5.2 36.7 0 39.3-.1 40.8-1.8 2.3-2.5 2.1-6.8-.3-9.2-1.9-1.9-3.3-2-40.5-2h-38.6l-2.5 2.6zM673.2 296c-5.3 2.2-5.1 9.9.4 12 3.8 1.5 74.6 1.3 77.9-.2 5-2.3 4.6-9.9-.6-11.7-3.9-1.4-74.3-1.4-77.7-.1zM671.6 327.5c-2.6 2.7-2.9 5.6-.8 8.4l1.9 2.6 39.1.3c38.1.2 39.2.2 41.2-1.8 2.7-2.7 2.6-7.5-.2-9.4-3.3-2.3-78.9-2.4-81.2-.1zM435.5 300.5c-1.4 1.3-2.5 3.5-2.5 4.9 0 2.8 4.2 6.6 7.2 6.6 2.5 0 6.8-4.4 6.8-7 0-2.7-4.3-7-7-7-1.1 0-3.2 1.1-4.5 2.5zM435 331c-4.1 4.1-1 11 4.8 11 3.3 0 4.5-.8 6.1-3.8 3.4-6.5-5.6-12.5-10.9-7.2zM856 308.3c-3.8 1.9-4.8 6.1-2.3 9.5 2.6 3.6 6.8 4.1 9.9 1.1 3.1-2.9 3.1-6.3-.1-9.4-2.7-2.8-3.9-3-7.5-1.2zM854.1 358.6c-2.6 3.3-2.6 5.5-.3 8.2 2.9 3.5 6.7 3.8 9.6.8 3.2-3.1 3.3-6.6.3-9.4-3.2-3-7.1-2.8-9.6.4zM426.8 428.1c-10.1 8.3-18.8 16.2-19.4 17.6-1 2.3 1.2 9.5 17.3 58 15.7 47.1 18.9 55.6 20.8 56.5 2.9 1.3 6-.3 7.8-4 .8-1.5 7.7-21.3 15.3-43.9 7.6-22.7 14.1-41.3 14.4-41.3.3 0 7 19.4 14.9 43.1 8.3 25 15.1 43.9 16.2 45 1.1 1.1 2.6 1.9 3.4 1.9 4.1 0 6.2-5 21.5-50.2l15.5-45.7 15.6 46.6c15.2 45.6 16.8 49.3 20.6 49.3 3.8 0 6.1-5.5 20.2-47.3 8-23.5 14.8-42.4 15.2-42 .4.5 7.2 19.9 15 43.2 7.9 23.4 15.1 43.3 16.1 44.3 2.4 2.4 4.5 2.3 7-.5 1.2-1.4 8.2-20.3 16.8-45.7l14.7-43.3 14.8 44.2c12 35.9 15.2 44.5 17.1 45.7 3 2 6 1 7.8-2.4.8-1.5 9.4-26.3 19.2-55 14.1-41.7 17.5-52.9 16.8-54.7-.5-1.3-9.2-9.5-19.4-18.4-15.3-13.3-19-16.1-21.5-16.1s-6.2 2.6-19.4 13.6l-16.3 13.6-2.6-2.4c-1.5-1.4-8.5-7.5-15.6-13.6-10.5-9.2-13.4-11.2-16-11.2-2.5 0-6.2 2.6-19.4 13.6L625 440.1l-15.6-13.6c-12.6-11-16.1-13.5-18.6-13.5-2.4 0-6.4 2.8-19.9 14-10.6 8.8-17.4 13.8-18.2 13.3-.7-.4-8.1-6.7-16.5-14-12.9-11.3-15.7-13.3-18.5-13.3-2.6.1-6.1 2.5-19.2 13.5-13.7 11.5-16.2 13.2-17.7 12.2-.9-.7-8-6.7-15.7-13.5C454 415.6 450.3 413 448 413c-2.2 0-6.9 3.3-21.2 15.1zm34.8 11.5c7.4 6.4 13.4 11.8 13.4 12.1 0 1.6-26.4 77.3-27 77.3-.3 0-6.6-17.8-13.9-39.5l-13.3-39.4 3.3-2.8c8.5-7.2 23.4-19.3 23.8-19.3.2 0 6.4 5.2 13.7 11.6zm70 0c7.4 6.5 13.4 11.8 13.4 12 0 .4-25 73.1-26.2 76.4-.8 2.1-3-3.3-14.4-37-7.4-21.7-13.3-40-13.2-40.6.3-1 25.5-22.4 26.5-22.4.2 0 6.5 5.2 13.9 11.6zm71.3-1.4c6.4 5.5 12.4 10.9 13.4 11.8 1.7 1.5 1.1 3.5-11.3 39.5-7.2 20.9-13.3 38.7-13.6 39.5-.6 1.6-27.7-76.6-27.2-78.6.3-1.2 25.4-22.4 26.5-22.4.3 0 5.8 4.6 12.2 10.2zm71.4 1.4c7.2 6.3 13.1 12.1 13.1 12.7-.2 1.6-25.3 74.8-26.3 76.5-.4.8-6.1-14.7-14.2-38.8l-13.5-40 13-10.9c7.2-6 13.4-11 13.9-11 .4-.1 6.7 5.1 14 11.5zm70.5.6l13 11.2-10.5 30.6c-5.8 16.8-11.9 34.5-13.5 39.3-1.7 4.9-3.2 8.7-3.4 8.5-.1-.2-6.4-18.2-13.8-40l-13.4-39.7 13.1-11c7.3-6 13.7-10.8 14.4-10.6.7.2 7 5.5 14.1 11.7zM254.3 580.1l-19.3 10V807l355.8-.2 355.7-.3.3-107.6c.2-85.4-.1-107.9-1-108.7-1.6-1.2-37.4-20.2-38.2-20.2-.3 0-.6 1.7-.6 3.8 0 2.7.7 4.5 2.1 5.8 1.2 1 4.4 4.5 7.1 7.6l5 5.8H259.8l7.1-7.6c6.3-6.7 7.1-8 7.1-11.5 0-2.1-.1-3.9-.2-3.9-.2 0-9 4.6-19.5 10.1zm352.1 57.3c9.5 3.2 15 6.3 21.5 12.2 19 17.1 24.5 49 12.6 72.9-1.9 3.8-4.3 8.2-5.2 9.7-1.7 2.7-1.7 2.8 1.5 6.1 1.7 1.8 3.2 4.2 3.2 5.4 0 2.3-16.4 16.3-19.1 16.3-1 0-3.4-2-5.5-4.5l-3.9-4.6-7.9 2.1c-9.7 2.5-25.4 2.7-34.1.5-10.9-2.8-20.3-8.1-28-15.9-11.6-11.8-16.8-25.1-16.9-43.1 0-23.7 11.9-43.8 31.7-53.4 10.9-5.4 19.6-7.2 32.2-6.7 7.4.3 12 1.1 17.9 3zm175 3.2c1 2.7.7 82.8-.4 88.4-3.7 19.7-18.5 31-40.5 31-8.1 0-15.7-1.6-21.6-4.6-5.7-2.8-10.9-7.1-10.9-8.9 0-1.5 9.4-18.2 11.3-20.2 1-1 2.4-.4 6.5 2.4 4.4 3.1 6.3 3.8 11.5 4.1 5.3.3 6.6.1 9.1-1.9 5.5-4.3 5.6-5.3 5.6-48.8v-40l2.2-1.5c3.3-2.3 26.3-2.3 27.2 0zm84.2 1c3.2.8 8.4 2.6 11.4 4 6.2 2.9 16 9.9 16 11.6 0 1.6-13.8 19.8-15.5 20.4-.7.3-3.6-1-6.4-3-14.3-9.8-35.9-11.5-39.1-3.2-2.1 5.7.4 7.2 21.3 12.7 17.8 4.7 25.8 8.1 32.2 14 7 6.5 8.8 10.7 9.3 21.9.5 12-1.7 18.5-8.8 26.3-9.2 10-22.4 14.3-42 13.4-17.5-.8-28-4.3-39.7-13.1-3.8-2.9-6.3-5.5-6.3-6.7 0-2 12.2-19.9 14.4-21.1.8-.5 3.4.8 6.8 3.5 9 7 16.8 10 27.1 10.5s15.9-1.3 18.3-6c3.1-6-.4-8.2-21.9-13.9-24.2-6.3-32.9-11.5-38.4-22.7-3.8-7.8-3.9-19.1-.1-27.3 5.7-12.5 16.4-20 32.3-22.9 6.6-1.2 21.6-.4 29.1 1.6zm-497.2 3.3c7.6 3 13.8 8.8 17.3 16 2.3 4.6 2.8 6.9 2.7 13.1 0 9.1-2.6 15.5-8.5 21.6l-3.9 4 3.9 3.2c2.5 2 5.2 5.7 7.3 9.9 3 6.1 3.3 7.6 3.2 15.3 0 6.6-.5 9.7-2.3 13.7-3 6.8-10.1 13.4-17.7 16.4-5.8 2.3-6.3 2.4-42.9 2.4h-37l-.3-58c-.1-31.9 0-58.6.3-59.3.4-1.1 7.3-1.3 36.2-1 34.9.3 36 .4 41.7 2.7zm111.3-2.1c1.4.9 44.3 112.1 44.3 114.9 0 1.2-.7 2.4-1.6 2.7-3.2 1.2-29.1.7-30.1-.7-.6-.6-2.3-4.7-3.8-9l-2.8-7.7h-44.2l-2.9 7.7c-1.6 4.3-3.4 8.4-3.9 9-.7.9-4.9 1.3-14.7 1.3-15.3 0-17-.3-17-3.1 0-2.8 43-114.2 44.4-115.1 1.5-1 30.8-1 32.3 0zm203.7 87.6c5.9 2.5 9.8 10.6 8.2 17-1 4.2-6.4 9.5-10.7 10.6-8.3 2.3-16.9-3.3-18.4-12-.6-3.3-.2-5.1 1.7-8.7 3.8-7.4 11.4-10.2 19.2-6.9z"/><path d="M576.8 662.3c-14.3 4.1-22.5 17.4-21.6 35.2 1 18.4 12.9 30.5 30 30.5 3.2 0 5.8-.2 5.8-.5s-2-3-4.5-6.1c-2.6-3.1-4.4-6.1-4.2-6.8.7-2.2 17.2-15.5 19.3-15.6 1.4 0 3.6 1.9 6.5 5.5 2.4 3 4.7 5.5 5.1 5.5 1.4 0 2.8-7.7 2.8-15.7 0-14.3-5.7-24.5-16.5-29.9-6.6-3.1-15.8-4-22.7-2.1zM317 679v9h17c21.7 0 24-.9 24-9.6 0-2.4-.8-4.3-2.5-5.9-2.4-2.5-2.6-2.5-20.5-2.5h-18v9zM317 724v9h19.3c20.7-.1 21.7-.3 23.7-5.5.8-2 .7-3.8-.1-6.2-1.8-5.5-5-6.3-25.4-6.3H317v9zM463 680.1c0 .3-2.7 7.9-6 16.9-3.3 9-6 16.7-6 17.2 0 .4 5.6.8 12.5.8s12.5-.4 12.5-.9c0-2.3-12.9-36.1-13-34zM285.9 822.9c-2.3 1.9-2.4 2.4-2.4 16.8.1 12.3.5 16 2.3 21.8 4.9 15.9 15.5 28 31.6 36 8.7 4.4 207.4 84.6 224.3 90.6 14.3 5.1 24.5 7 41.9 7.6 17.7.6 27.2-.3 42-4.2 5-1.3 56-21.3 113.5-44.5 57.4-23.2 107.3-43.3 110.9-44.6 20.8-7.9 35.3-21.3 40.9-38.2 2-5.8 2.1-7.6 1.5-22.9-.6-14.2-1-16.9-2.6-18.5-2.4-2.4-6.3-2.3-8.9.3-1.9 1.9-2 3-1.7 18.7l.3 16.7-3.3 6.7c-4.1 8.4-12.3 16.2-22.3 21.2-12.6 6.2-222.9 90.3-231.4 92.5-13.1 3.3-24.8 4.4-39 3.8-22.2-1.1-28.1-2.9-92.5-28.9-31.6-12.7-81.9-32.9-111.8-44.9-29.9-12-56.3-23.1-58.8-24.5-8.3-4.9-15.1-12-19.1-20.1-3.7-7.5-3.7-7.5-4.2-23.5-.6-15.3-.7-16.1-3-17.9-3-2.4-5.3-2.4-8.2 0z"/><path d="M403 856.5V872h8.9l.3-7.8.3-7.7 2.9 7.7c2.4 6.5 3.2 7.8 5.1 7.8 1.8 0 2.7-1.4 5.3-7.8l3.1-7.7v7.7l.1 7.8h9v-31h-11.5l-2.9 8.1-2.9 8.1-3.1-8.1-3-8.1H403v15.5zM481 856.5V872h23v-7h-7c-6.8 0-7-.1-7-2.5s.2-2.5 7-2.5h7v-7h-7c-6.3 0-7-.2-7-2s.7-2 7-2h7v-8h-23v15.5zM546 856.5V872h23v-7h-7c-6.8 0-7-.1-7-2.5s.2-2.5 7-2.5h7v-7h-7c-6.3 0-7-.2-7-2s.7-2 7-2h7v-8h-23v15.5zM610 845v4h8v23h9v-23h8v-8h-25v4zM676.2 852.2c.5 13.5 1.8 16.8 7.8 19.2 8 3.2 16.4 1.3 20-4.6 1.7-2.8 2-5 2-14.6V841h-9v10.4c0 11.6-.9 13.6-6 13.6-4.7 0-6-3-6-14.2V841h-9.2l.4 11.2zM749 856.5V872h9v-10h5.4c6.4 0 9.9-2.3 11.6-7.5 1-3 .9-4.1-.7-7.2-2.5-5.2-5.2-6.3-16-6.3H749v15.5zm17.5-5c0 1.6-.8 2.1-4.2 2.3-4 .3-4.3.2-4.3-2.3s.3-2.6 4.3-2.3c3.4.2 4.2.7 4.2 2.3z"/></svg>