<svg xmlns="http://www.w3.org/2000/svg" fill="none" viewBox="0 0 1575 1575">
  <path fill="#000" d="M876 262.667c-1.466 1.466-2.666 3.6-2.666 4.8 0 1.333 2.666 11.466 6 22.666 3.333 11.067 6 20.934 6 21.734 0 .933-4.934 1.466-14.534 1.466-11.466 0-15.066.4-16.666 2.134-1.867 1.866-2.134 9.2-2.134 60.933l-.133 58.933-30.267-31.066c-23.466-24-31.066-30.934-33.6-30.934-2.533 0-7.6 4.4-21.333 18.667l-18 18.667H711.2c-45.2 0-41.866-1.467-41.866 18.4v13.6h-30.667v-38.534c0-33.333-.267-38.933-2.133-40.666-1.734-1.867-7.734-2.134-45.067-2.134h-42.933l1.066-11.2c.934-12 3.6-23.466 7.867-35.066 2.533-6.667 2.667-7.467.667-10.4L556 301.333H381.333l-2 3.067c-1.733 2.8-2 28.4-1.733 232.8l.4 229.734 3.2 2.533c3.867 3.2 7.067 3.2 10.933 0l3.2-2.533.4-224.134.267-224.133h26.667v224c0 222.267 0 224 2.666 226.666 1.467 1.467 4.134 2.667 6 2.667 1.867 0 4.534-1.2 6-2.667C440 766.667 440 764.934 440 542.667v-224h97.6l-.933 3.6c-2.667 10.4-4.667 21.6-4.667 26v5.066h-62.8l-3.333 3.467c-2.667 2.533-3.2 4.133-2.534 6.933 1.6 6.667 2.8 6.934 36 6.934h30.934l.933 14.266c.533 8 1.333 17.867 2 22l1.067 7.734h-33.2c-31.334 0-33.2.133-35.734 2.666-3.6 3.6-3.333 7.467.667 11.334l3.2 3.333h67.734l5.466 20.933c2.933 11.6 5.867 22.134 6.267 23.334.933 2.266-1.733 2.4-43.2 2.4H461.2L458 482c-4 3.867-4.267 7.733-.667 11.333 2.134 2.134 4.4 2.667 12 2.667h9.334l.267 135.467.399 135.467 3.2 2.533c3.867 3.2 7.067 3.2 10.934 0l3.2-2.533.4-135.467.266-135.467h573.337v135.333c0 133.601 0 135.334 2.66 138 3.47 3.467 8.54 3.467 12 0 2.67-2.666 2.67-4.399 2.67-81.333v-78.667h34.67l.26 78.8.4 78.801 3.2 2.533c3.87 3.2 7.07 3.2 10.94 0l3.2-2.533.4-84.801c.26-83.466.26-84.8-2.4-87.466-2.54-2.534-4.4-2.667-26.67-2.667h-24v-96h11.73c9.74 0 12.27-.4 14-2.4 2.8-3.067 2.94-8.267.4-11.733-1.86-2.4-4.13-2.534-40-2.934l-38.13-.4V440h33.87c33.6 0 34 0 36-2.933 1.73-2.534 2.13-7.734 2.13-30.667v-27.733h64v194c0 192.267 0 194 2.67 196.666 3.46 3.467 8.53 3.467 12 0 2.66-2.666 2.66-4.399 2.66-204 0-197.6 0-201.2-2.53-202.666-4-2.134-87.87-1.734-92.13.4l-3.34 1.733-.4 28.933-.26 28.934H1036v-51.2c0-29.6-.53-52.667-1.33-54.667-1.2-3.333-1.6-3.333-15.74-3.733l-14.53-.4 5.87-20.667c3.06-11.333 5.73-22.267 5.73-24.267 0-7.733.4-7.733-71.6-7.733-64 0-65.866.133-68.4 2.667ZM995.734 279.6c-.4 1.333-2.667 9.467-5.067 18l-4.4 15.733h-41.2c-22.533 0-41.067-.4-41.067-1.066 0-.534-2.4-8.534-5.2-18l-5.066-16.934h51.2c48.266 0 51.333.134 50.8 2.267Zm21.596 125.067v74H895.334L882.4 465.733l-13.066-13.066v-122h147.996v74ZM621.334 415.6c.133 27.067.533 37.6 1.733 39.2 3.6 4.667 7.2 5.2 33.467 5.2 21.866 0 26.266-.4 28-2.133 1.733-1.6 2.133-5.067 2.133-16V428h44.667L706 453.333l-25.333 25.334-56.533-.267-56.534-.4-3.733-12.8c-7.6-26.533-13.067-55.6-14.933-79.6l-.534-6.933h72.934V415.6ZM830 437.333l41.334 41.334H706l15.334-15.734C756.8 426.667 787.334 396 788 396c.4 0 19.334 18.533 42 41.333Z"/>
  <path fill="#000" d="M895.2 356.8c-2.666 2.533-3.2 4.133-2.533 6.933 1.6 6.934 1.333 6.934 57.333 6.934 48.934 0 52.4-.134 54.4-2.4 3.07-3.334 2.8-9.067-.4-12.267-2.53-2.533-4.4-2.667-54-2.667h-51.466L895.2 356.8Zm2.4 37.867c-7.066 2.933-6.8 13.2.533 16 5.067 2 99.467 1.733 103.867-.267 6.67-3.067 6.13-13.2-.8-15.6-5.2-1.867-99.067-1.867-103.6-.133Zm-2.133 42c-3.467 3.6-3.867 7.466-1.067 11.2l2.534 3.466 52.133.4c50.8.267 52.263.267 54.933-2.4 3.6-3.6 3.47-10-.27-12.533-4.397-3.067-105.197-3.2-108.263-.133Zm-314.8-36c-1.867 1.733-3.334 4.666-3.334 6.533 0 3.733 5.6 8.8 9.6 8.8 3.334 0 9.067-5.867 9.067-9.333 0-3.6-5.733-9.334-9.333-9.334-1.467 0-4.267 1.467-6 3.334ZM580 441.333C574.533 446.8 578.667 456 586.4 456c4.4 0 6-1.067 8.133-5.067 4.534-8.666-7.466-16.666-14.533-9.6Zm561.33-30.266c-5.06 2.533-6.4 8.133-3.06 12.666 3.46 4.8 9.06 5.467 13.2 1.467 4.13-3.867 4.13-8.4-.14-12.533-3.6-3.734-5.2-4-10-1.6Zm-2.53 67.066c-3.47 4.4-3.47 7.334-.4 10.934 3.87 4.666 8.93 5.066 12.8 1.066 4.27-4.133 4.4-8.8.4-12.533-4.27-4-9.47-3.733-12.8.533ZM569.067 570.8C555.6 581.867 544 592.4 543.2 594.267c-1.333 3.066 1.6 12.666 23.067 77.333 20.933 62.8 25.2 74.133 27.733 75.334 3.867 1.733 8-.401 10.4-5.334 1.067-2 10.267-28.4 20.4-58.533C634.933 652.8 643.6 628 644 628c.4 0 9.333 25.867 19.867 57.467 11.066 33.333 20.133 58.533 21.6 60 1.466 1.466 3.466 2.533 4.533 2.533 5.467 0 8.267-6.667 28.667-66.933l20.666-60.934 20.8 62.134C780.4 743.067 782.533 748 787.6 748s8.133-7.333 26.934-63.066C825.2 653.6 834.267 628.4 834.8 628.933c.533.667 9.6 26.534 20 57.601 10.533 31.2 20.134 57.733 21.467 59.066 3.2 3.2 6 3.067 9.333-.666 1.6-1.867 10.934-27.067 22.4-60.934l19.6-57.733 19.733 58.933c16 47.867 20.267 59.333 22.8 60.933 4 2.667 8.001 1.334 10.401-3.199 1.066-2 12.533-35.067 25.596-73.334 18.8-55.6 23.34-70.533 22.4-72.933-.66-1.734-12.26-12.667-25.86-24.534-20.403-17.733-25.337-21.466-28.67-21.466-3.333 0-8.267 3.466-25.867 18.133L926.4 586.933l-3.466-3.2c-2-1.866-11.334-10-20.801-18.133-14-12.267-17.866-14.933-21.333-14.933-3.333 0-8.266 3.466-25.866 18.133l-21.601 18-20.799-18.133c-16.801-14.667-21.467-18-24.801-18-3.2 0-8.533 3.733-26.533 18.666-14.133 11.734-23.2 18.4-24.267 17.734-.933-.534-10.8-8.934-22-18.667-17.2-15.067-20.933-17.733-24.666-17.733-3.467.133-8.134 3.333-25.6 18-18.267 15.333-21.6 17.6-23.6 16.266-1.2-.933-10.667-8.933-20.934-18-14.8-12.8-19.733-16.266-22.8-16.266-2.933 0-9.2 4.4-28.266 20.133Zm46.4 15.333c9.866 8.534 17.866 15.734 17.866 16.134 0 2.133-35.2 103.066-36 103.066-.4 0-8.8-23.733-18.533-52.666l-17.733-52.534 4.4-3.733c11.333-9.6 31.2-25.733 31.733-25.733.267 0 8.533 6.933 18.267 15.466Zm93.333 0c9.867 8.667 17.867 15.734 17.867 16 0 .534-33.334 97.467-34.934 101.867-1.066 2.8-4-4.4-19.2-49.333-9.866-28.934-17.733-53.334-17.6-54.134.4-1.333 34-29.866 35.334-29.866.266 0 8.666 6.933 18.533 15.466Zm95.067-1.866A1105.962 1105.962 0 0 1 821.733 600c2.267 2 1.467 4.667-15.066 52.667-9.6 27.866-17.733 51.6-18.133 52.666-.8 2.134-36.934-102.133-36.267-104.8.4-1.6 33.866-29.866 35.333-29.866.4 0 7.734 6.133 16.267 13.6Zm95.2 1.866c9.6 8.4 17.467 16.134 17.467 16.934-.267 2.133-33.734 99.733-35.067 102-.534 1.066-8.134-19.6-18.933-51.734l-18-53.333 17.333-14.533c9.6-8 17.866-14.667 18.533-14.667.533-.133 8.933 6.8 18.667 15.333Zm94 .8 17.333 14.934-14 40.8c-7.733 22.4-15.866 46-18 52.4-2.267 6.533-4.266 11.6-4.533 11.333-.133-.267-8.534-24.267-18.4-53.333L937.6 600.133l17.467-14.666c9.733-8 18.266-14.4 19.2-14.134.933.267 9.333 7.334 18.8 15.6Zm-654 186.534L313.333 786.8V1076l474.4-.27 474.267-.4.4-143.463c.27-113.867-.13-143.867-1.33-144.933-2.14-1.601-49.87-26.934-50.94-26.934-.4 0-.8 2.267-.8 5.067 0 3.6.94 6 2.8 7.733 1.6 1.333 5.87 6 9.47 10.134l6.67 7.733H346.4l9.467-10.133c8.4-8.934 9.466-10.667 9.466-15.334 0-2.8-.133-5.2-.266-5.2-.267 0-12 6.133-26 13.467Zm469.467 76.4c12.666 4.267 20 8.4 28.666 16.266 25.334 22.8 32.667 65.334 16.8 97.201-2.533 5.066-5.733 10.933-6.933 12.933-2.267 3.6-2.267 3.733 2 8.133 2.266 2.4 4.266 5.6 4.266 7.2 0 3.067-21.866 21.73-25.466 21.73-1.333 0-4.534-2.66-7.333-6l-5.201-6.13-10.533 2.8c-12.933 3.33-33.867 3.6-45.467.67-14.533-3.74-27.066-10.803-37.333-21.203C706.533 967.733 699.6 950 699.467 926c0-31.6 15.866-58.4 42.266-71.2 14.534-7.2 26.134-9.6 42.934-8.933 9.866.4 16 1.467 23.867 4Zm233.336 4.266c1.33 3.6.93 110.401-.54 117.867-4.93 26.267-24.66 41.33-53.997 41.33-10.799 0-20.933-2.13-28.799-6.13-7.6-3.73-14.534-9.466-14.534-11.866 0-2 12.534-24.267 15.067-26.934 1.333-1.333 3.2-.533 8.667 3.2 5.866 4.134 8.399 5.067 15.333 5.467 7.066.4 8.8.133 12.133-2.533 7.33-5.734 7.47-7.067 7.47-65.067v-53.334l2.93-2c4.4-3.066 35.07-3.066 36.27 0Zm112.26 1.334c4.27 1.066 11.2 3.466 15.2 5.333 8.27 3.867 21.34 13.2 21.34 15.467 0 2.133-18.4 26.4-20.67 27.2-.93.4-4.8-1.333-8.53-4-19.07-13.067-47.87-15.333-52.14-4.267-2.8 7.6.54 9.6 28.4 16.934 23.74 6.266 34.4 10.8 42.94 18.666 9.33 8.667 11.73 14.267 12.4 29.2.66 16-2.27 24.667-11.74 35.067-12.26 13.333-29.86 19.063-56 17.863-23.33-1.06-37.33-5.73-52.93-17.463-5.07-3.867-8.4-7.333-8.4-8.933 0-2.667 16.27-26.534 19.2-28.134 1.07-.667 4.53 1.067 9.07 4.667 12 9.333 22.4 13.333 36.13 14 13.73.667 21.2-1.733 24.4-8 4.13-8-.53-10.933-29.2-18.533-32.27-8.4-43.87-15.334-51.2-30.267-5.07-10.4-5.2-25.467-.13-36.4 7.6-16.667 21.86-26.667 43.06-30.534 8.8-1.6 28.8-.533 38.8 2.134Zm-662.93 4.4c10.133 4 18.4 11.733 23.067 21.333 3.066 6.134 3.733 9.2 3.6 17.467 0 12.133-3.467 20.666-11.334 28.8l-5.2 5.333 5.2 4.267c3.334 2.667 6.934 7.6 9.734 13.2 4 8.133 4.4 10.133 4.266 20.4 0 8.8-.666 12.933-3.066 18.267-4 9.066-13.467 17.866-23.6 21.866-7.734 3.07-8.4 3.2-57.2 3.2h-49.334l-.4-77.333c-.133-42.533 0-78.133.4-79.067.534-1.466 9.734-1.733 48.267-1.333 46.533.4 48 .533 55.6 3.6Zm148.4-2.8c1.867 1.2 59.067 149.463 59.067 153.203 0 1.6-.934 3.2-2.134 3.6-4.266 1.6-38.8.93-40.133-.94-.8-.8-3.067-6.26-5.067-12l-3.733-10.263h-58.933l-3.867 10.263c-2.133 5.74-4.533 11.2-5.2 12-.933 1.2-6.533 1.74-19.6 1.74-20.4 0-22.667-.4-22.667-4.14 0-3.73 57.334-152.263 59.2-153.463 2-1.334 41.067-1.334 43.067 0Zm271.6 116.8c7.867 3.333 13.067 14.133 10.933 22.667-1.333 5.596-8.533 12.666-14.266 14.136-11.067 3.06-22.534-4.4-24.534-16.003-.799-4.4-.266-6.8 2.267-11.6 5.067-9.867 15.2-13.6 25.6-9.2Z"/>
  <path fill="#F2D903" d="M911.2 973.867c7.867 3.333 13.067 14.133 10.933 22.667-1.333 5.596-8.533 12.666-14.266 14.136-11.067 3.06-22.534-4.4-24.534-16.003-.799-4.4-.266-6.8 2.267-11.6 5.067-9.867 15.2-13.6 25.6-9.2ZM1154.13 855.467c4.27 1.066 11.2 3.466 15.2 5.333 8.27 3.867 21.34 13.2 21.34 15.467 0 2.133-18.4 26.4-20.67 27.2-.93.4-4.8-1.333-8.53-4-19.07-13.067-47.87-15.333-52.14-4.267-2.8 7.6.54 9.6 28.4 16.934 23.74 6.266 34.4 10.8 42.94 18.666 9.33 8.667 11.73 14.267 12.4 29.2.66 16-2.27 24.667-11.74 35.067-12.26 13.333-29.86 19.063-56 17.863-23.33-1.06-37.33-5.73-52.93-17.463-5.07-3.867-8.4-7.333-8.4-8.933 0-2.667 16.27-26.534 19.2-28.134 1.07-.667 4.53 1.067 9.07 4.667 12 9.333 22.4 13.333 36.13 14 13.73.667 21.2-1.733 24.4-8 4.13-8-.53-10.933-29.2-18.533-32.27-8.4-43.87-15.334-51.2-30.267-5.07-10.4-5.2-25.467-.13-36.4 7.6-16.667 21.86-26.667 43.06-30.534 8.8-1.6 28.8-.533 38.8 2.134ZM1041.87 854.133c1.33 3.6.93 110.401-.54 117.867-4.93 26.267-24.66 41.33-53.997 41.33-10.799 0-20.933-2.13-28.799-6.13-7.6-3.73-14.534-9.466-14.534-11.866 0-2 12.534-24.267 15.067-26.934 1.333-1.333 3.2-.533 8.667 3.2 5.866 4.134 8.399 5.067 15.333 5.467 7.066.4 8.8.133 12.133-2.533 7.33-5.734 7.47-7.067 7.47-65.067v-53.334l2.93-2c4.4-3.066 35.07-3.066 36.27 0Z"/>
  <path fill="#fff" d="M808.534 849.867c12.666 4.267 20 8.4 28.666 16.266 25.334 22.8 32.667 65.334 16.8 97.201-2.533 5.066-5.733 10.933-6.933 12.933-2.267 3.6-2.267 3.733 2 8.133 2.266 2.4 4.266 5.6 4.266 7.2 0 3.067-21.866 21.73-25.466 21.73-1.333 0-4.534-2.66-7.333-6l-5.201-6.13-10.533 2.8c-12.933 3.33-33.867 3.6-45.467.67-14.533-3.74-27.066-10.803-37.333-21.203C706.533 967.733 699.6 950 699.467 926c0-31.6 15.866-58.4 42.266-71.2 14.534-7.2 26.134-9.6 42.934-8.933 9.866.4 16 1.467 23.867 4ZM639.6 857.067c1.867 1.2 59.067 149.463 59.067 153.203 0 1.6-.934 3.2-2.134 3.6-4.266 1.6-38.8.93-40.133-.94-.8-.8-3.067-6.26-5.067-12l-3.733-10.263h-58.933l-3.867 10.263c-2.133 5.74-4.533 11.2-5.2 12-.933 1.2-6.533 1.74-19.6 1.74-20.4 0-22.667-.4-22.667-4.14 0-3.73 57.334-152.263 59.2-153.463 2-1.334 41.067-1.334 43.067 0ZM491.2 859.867c10.133 4 18.4 11.733 23.067 21.333 3.066 6.134 3.733 9.2 3.6 17.467 0 12.133-3.467 20.666-11.334 28.8l-5.2 5.333 5.2 4.267c3.334 2.667 6.934 7.6 9.734 13.2 4 8.133 4.4 10.133 4.266 20.4 0 8.8-.666 12.933-3.066 18.267-4 9.066-13.467 17.866-23.6 21.866-7.734 3.07-8.4 3.2-57.2 3.2h-49.334l-.4-77.333c-.133-42.533 0-78.133.4-79.067.534-1.466 9.734-1.733 48.267-1.333 46.533.4 48 .533 55.6 3.6Z"/>
  <path fill="#000" d="M769.067 883.067c-19.067 5.467-30 23.2-28.8 46.933 1.333 24.534 17.2 40.667 40 40.667 4.267 0 7.733-.267 7.733-.667s-2.666-4-6-8.133c-3.466-4.133-5.867-8.133-5.6-9.067.933-2.933 22.933-20.666 25.733-20.8 1.867 0 4.8 2.534 8.667 7.334 3.2 4 6.267 7.333 6.8 7.333 1.867 0 3.734-10.267 3.734-20.933 0-19.067-7.6-32.667-22-39.867-8.8-4.133-21.067-5.333-30.267-2.8Zm-346.4 22.267v12h22.666c28.934 0 32-1.2 32-12.8 0-3.2-1.066-5.734-3.333-7.867-3.2-3.333-3.467-3.333-27.333-3.333h-24v12Zm0 60v12H448.4c27.6-.134 28.933-.4 31.6-7.334 1.067-2.666.933-5.066-.133-8.266-2.4-7.334-6.667-8.4-33.867-8.4h-23.333v12ZM617.333 906.8c0 .4-3.6 10.534-8 22.534-4.4 12-8 22.266-8 22.933 0 .533 7.467 1.067 16.667 1.067 9.2 0 16.667-.534 16.667-1.2 0-3.067-17.2-48.134-17.334-45.334ZM381.2 1097.2c-3.067 2.53-3.2 3.2-3.2 22.4.133 16.4.667 21.33 3.067 29.07 6.533 21.2 20.666 37.33 42.133 48 11.6 5.86 276.534 112.8 299.067 120.8 19.067 6.8 32.667 9.33 55.866 10.13 23.6.8 36.267-.4 56-5.6 6.667-1.73 74.667-28.4 151.334-59.33 76.533-30.94 143.063-57.74 147.863-59.47 27.74-10.53 47.07-28.4 54.54-50.93 2.66-7.74 2.8-10.14 2-30.54-.8-18.93-1.34-22.53-3.47-24.66-3.2-3.2-8.4-3.07-11.87.4-2.53 2.53-2.66 4-2.26 24.93l.4 22.27-4.4 8.93c-5.47 11.2-16.4 21.6-29.74 28.27-16.8 8.26-297.196 120.4-308.53 123.33-17.466 4.4-33.066 5.87-52 5.07-29.6-1.47-37.466-3.87-123.333-38.54-42.134-16.93-109.2-43.86-149.067-59.86-39.867-16-75.067-30.8-78.4-32.67-11.067-6.53-20.133-16-25.467-26.8-4.933-10-4.933-10-5.6-31.33-.8-20.4-.933-21.47-4-23.87-4-3.2-7.066-3.2-10.933 0Z"/>
  <path fill="#000" d="M537.333 1142v20.67H549.2l.4-10.4.4-10.27 3.867 10.27c3.2 8.66 4.267 10.4 6.8 10.4 2.4 0 3.6-1.87 7.066-10.4l4.134-10.27v10.27l.133 10.4h12v-41.34h-15.333l-3.867 10.8-3.866 10.8-4.134-10.8-4-10.8h-15.467V1142Zm104.001 0v20.67H672v-9.34h-9.333c-9.067 0-9.333-.13-9.333-3.33s.266-3.33 9.333-3.33H672v-9.34h-9.333c-8.4 0-9.333-.26-9.333-2.66 0-2.4.933-2.67 9.333-2.67H672v-10.67h-30.666V1142Zm86.666 0v20.67h30.667v-9.34h-9.333c-9.067 0-9.334-.13-9.334-3.33s.267-3.33 9.334-3.33h9.333v-9.34h-9.333c-8.4 0-9.334-.26-9.334-2.66 0-2.4.934-2.67 9.334-2.67h9.333v-10.67H728V1142Zm85.334-15.33v5.33H824v30.67h12V1132h10.667v-10.67h-33.333v5.34Zm88.266 9.6c.667 18 2.4 22.4 10.4 25.6 10.667 4.26 21.867 1.73 26.667-6.14 2.267-3.73 2.667-6.66 2.667-19.46v-14.94h-12v13.87c0 15.47-1.2 18.13-8 18.13-6.267 0-8-4-8-18.93v-13.07h-12.267l.533 14.94Zm97.067 5.73v20.67h12.003v-13.34h7.2c8.53 0 13.2-3.06 15.46-10 1.34-4 1.2-5.46-.93-9.6-3.33-6.93-6.93-8.4-21.33-8.4h-12.403V1142Zm23.333-6.67c0 2.14-1.07 2.8-5.6 3.07-5.33.4-5.73.27-5.73-3.07 0-3.33.4-3.46 5.73-3.06 4.53.26 5.6.93 5.6 3.06Z"/>
</svg>
