<svg xmlns="http://www.w3.org/2000/svg" fill="none" viewBox="0 0 254 44">
  <g clip-path="url(#a)">
    <path fill="#000" d="M144.4-72.038c-.43.408-.516.666-.409 1.118.258 1.118.215 1.118 9.248 1.118 7.894 0 8.453-.021 8.775-.387.495-.538.452-1.462-.064-1.979-.409-.408-.71-.43-8.711-.43h-8.301l-.538.56Zm.387 6.108c-1.14.473-1.097 2.129.086 2.58.817.323 16.044.28 16.754-.043 1.076-.494.99-2.129-.129-2.516-.839-.301-15.98-.301-16.711-.021Zm-.344 6.774c-.559.581-.624 1.205-.172 1.807l.409.56 8.409.064c8.194.043 8.431.043 8.861-.387.58-.581.559-1.613-.043-2.022-.71-.495-16.969-.516-17.464-.022Zm-50.779-5.807c-.3.28-.537.753-.537 1.054 0 .602.903 1.42 1.548 1.42.538 0 1.463-.947 1.463-1.506 0-.58-.925-1.505-1.506-1.505-.236 0-.688.236-.968.537Zm-.107 6.56c-.882.882-.215 2.366 1.032 2.366.71 0 .968-.172 1.312-.817.731-1.398-1.204-2.689-2.344-1.549Zm90.545-4.882c-.817.409-1.032 1.312-.494 2.043.559.774 1.462.882 2.129.237.666-.624.666-1.355-.022-2.022-.58-.602-.839-.645-1.613-.258Zm-.408 10.818c-.56.71-.56 1.183-.065 1.764.624.752 1.441.817 2.065.172.688-.667.709-1.42.064-2.022-.688-.645-1.527-.602-2.064.086Zm-91.9 14.948c-2.173 1.785-4.044 3.484-4.173 3.785-.215.495.258 2.043 3.72 12.474 3.377 10.13 4.066 11.958 4.474 12.152.624.28 1.29-.065 1.678-.86.172-.323 1.656-4.582 3.29-9.442 1.635-4.883 3.033-8.883 3.097-8.883.065 0 1.506 4.173 3.205 9.27 1.785 5.377 3.247 9.441 3.484 9.678.237.237.559.409.731.409.882 0 1.334-1.076 4.624-10.797l3.334-9.829 3.355 10.023c3.269 9.807 3.613 10.603 4.431 10.603.817 0 1.312-1.183 4.344-10.173 1.721-5.054 3.183-9.12 3.269-9.033.086.107 1.549 4.28 3.226 9.29 1.699 5.034 3.248 9.313 3.463 9.529.516.516.968.494 1.505-.108.258-.301 1.764-4.366 3.614-9.829l3.161-9.312 3.183 9.506c2.581 7.72 3.269 9.57 3.678 9.829.645.43 1.29.215 1.678-.517.172-.322 2.021-5.656 4.129-11.829 3.032-8.968 3.764-11.377 3.613-11.764-.107-.28-1.979-2.043-4.172-3.957-3.291-2.86-4.087-3.463-4.624-3.463-.538 0-1.334.56-4.173 2.925l-3.505 2.925-.56-.516c-.322-.301-1.828-1.613-3.355-2.925-2.258-1.979-2.882-2.409-3.441-2.409-.538 0-1.333.56-4.172 2.925l-3.484 2.903-3.356-2.925c-2.709-2.365-3.462-2.903-4-2.903-.516 0-1.376.602-4.28 3.011-2.28 1.893-3.742 2.968-3.914 2.86-.151-.086-1.742-1.44-3.549-3.01-2.774-2.43-3.376-2.861-3.979-2.861-.559.022-1.312.538-4.129 2.904-2.947 2.473-3.484 2.838-3.807 2.623-.193-.15-1.72-1.44-3.376-2.903-2.388-2.065-3.184-2.624-3.678-2.624-.473 0-1.484.71-4.56 3.248Zm7.484 2.473c1.591 1.376 2.882 2.538 2.882 2.602 0 .344-5.678 16.625-5.807 16.625-.065 0-1.42-3.828-2.99-8.495l-2.86-8.474.71-.602c1.828-1.549 5.032-4.15 5.118-4.15.043 0 1.377 1.117 2.947 2.494Zm15.055 0c1.591 1.398 2.882 2.538 2.882 2.58 0 .087-5.377 15.723-5.635 16.432-.172.452-.645-.71-3.097-7.957-1.592-4.668-2.861-8.603-2.839-8.732.064-.215 5.484-4.818 5.699-4.818.043 0 1.398 1.118 2.99 2.495Zm15.334-.301a175.74 175.74 0 0 1 2.882 2.538c.366.322.237.752-2.43 8.495-1.548 4.495-2.86 8.323-2.925 8.495-.129.345-5.957-16.474-5.85-16.904.065-.258 5.463-4.818 5.7-4.818.064 0 1.247.99 2.623 2.194Zm15.357.3c1.548 1.356 2.817 2.603 2.817 2.732-.043.344-5.441 16.088-5.656 16.453-.086.172-1.312-3.161-3.054-8.344l-2.904-8.603 2.796-2.345c1.549-1.29 2.882-2.365 2.99-2.365.086-.022 1.441 1.096 3.011 2.473Zm15.162.13 2.796 2.409-2.258 6.581a1636.09 1636.09 0 0 0-2.904 8.452c-.365 1.054-.688 1.871-.731 1.828a769.997 769.997 0 0 1-2.968-8.603l-2.882-8.538 2.818-2.366c1.57-1.29 2.946-2.322 3.097-2.28.15.044 1.505 1.183 3.032 2.517ZM54.693-4.828l-4.15 2.15v46.65l76.522-.044 76.501-.064.065-23.142c.043-18.367-.022-23.206-.215-23.378-.344-.258-8.044-4.345-8.216-4.345-.065 0-.129.366-.129.818 0 .58.15.967.452 1.247.258.215.946.968 1.527 1.635l1.075 1.247H55.876l1.527-1.635c1.355-1.44 1.527-1.72 1.527-2.473 0-.452-.021-.839-.043-.839-.043 0-1.935.99-4.194 2.173ZM130.42 7.495c2.043.688 3.226 1.355 4.624 2.624 4.087 3.678 5.27 10.538 2.71 15.679a41.105 41.105 0 0 1-1.118 2.086c-.366.58-.366.602.322 1.312.366.387.689.903.689 1.161 0 .495-3.528 3.506-4.108 3.506-.215 0-.731-.43-1.183-.968l-.839-.99-1.699.453c-2.086.537-5.463.58-7.334.107-2.344-.602-4.366-1.742-6.022-3.42-2.495-2.538-3.613-5.398-3.635-9.27 0-5.096 2.56-9.42 6.818-11.484 2.344-1.161 4.216-1.549 6.925-1.441 1.592.064 2.581.237 3.85.645Zm37.638.688c.215.581.15 17.808-.086 19.013-.796 4.237-3.979 6.667-8.711 6.667-1.742 0-3.376-.344-4.645-.99-1.226-.602-2.344-1.526-2.344-1.913 0-.323 2.021-3.915 2.43-4.345.215-.215.516-.086 1.398.516.946.667 1.355.817 2.473.882 1.14.064 1.42.021 1.957-.409 1.183-.924 1.205-1.14 1.205-10.495V8.506l.473-.323c.71-.494 5.656-.494 5.85 0Zm18.109.215c.688.172 1.806.56 2.452.86 1.333.624 3.441 2.13 3.441 2.496 0 .344-2.968 4.258-3.334 4.387-.15.065-.774-.215-1.376-.645-3.076-2.108-7.721-2.473-8.41-.688-.451 1.226.086 1.548 4.581 2.731 3.829 1.01 5.549 1.742 6.926 3.011 1.505 1.398 1.892 2.301 2 4.71.108 2.581-.366 3.979-1.893 5.656-1.978 2.151-4.817 3.076-9.033 2.882-3.763-.172-6.022-.924-8.538-2.817-.817-.624-1.355-1.183-1.355-1.441 0-.43 2.624-4.28 3.097-4.538.172-.107.731.172 1.463.753 1.935 1.505 3.613 2.15 5.828 2.258 2.215.107 3.42-.28 3.936-1.29.667-1.29-.086-1.764-4.71-2.99-5.205-1.355-7.076-2.473-8.259-4.882-.817-1.678-.839-4.108-.022-5.871 1.226-2.689 3.528-4.302 6.947-4.926 1.42-.258 4.646-.086 6.259.344Zm-106.934.71a7.021 7.021 0 0 1 3.72 3.441c.495.99.603 1.484.581 2.818 0 1.957-.559 3.333-1.828 4.645l-.838.86.838.689c.538.43 1.119 1.226 1.57 2.13.646 1.311.71 1.634.689 3.29 0 1.42-.108 2.086-.495 2.946-.645 1.463-2.172 2.882-3.807 3.527-1.247.495-1.355.517-9.226.517h-7.958l-.065-12.475c-.021-6.86 0-12.603.065-12.753.086-.237 1.57-.28 7.786-.216 7.506.065 7.742.087 8.968.581Zm23.938-.451c.301.193 9.527 24.11 9.527 24.711 0 .258-.15.517-.344.581-.688.258-6.258.15-6.473-.15-.13-.13-.495-1.011-.818-1.936l-.602-1.656h-9.506l-.624 1.656c-.344.925-.731 1.806-.839 1.935-.15.194-1.053.28-3.161.28-3.29 0-3.656-.065-3.656-.667 0-.602 9.248-24.56 9.549-24.754.322-.216 6.624-.216 6.947 0Zm43.81 18.84c1.269.538 2.107 2.28 1.763 3.656-.215.903-1.376 2.043-2.301 2.28-1.785.495-3.635-.71-3.957-2.581-.129-.71-.043-1.097.365-1.871.818-1.592 2.452-2.194 4.13-1.484Z"/>
    <path fill="#F2D903" d="M146.981 27.497c1.269.538 2.107 2.28 1.763 3.656-.215.903-1.376 2.043-2.301 2.28-1.785.495-3.635-.71-3.957-2.581-.129-.71-.043-1.097.365-1.871.818-1.592 2.452-2.194 4.13-1.484ZM168.058 8.183c.215.581.15 17.808-.086 19.013-.796 4.237-3.979 6.667-8.711 6.667-1.742 0-3.376-.344-4.645-.99-1.226-.602-2.344-1.526-2.344-1.913 0-.323 2.021-3.915 2.43-4.345.215-.215.516-.086 1.398.516.946.667 1.355.817 2.473.882 1.14.064 1.42.021 1.957-.409 1.183-.924 1.205-1.14 1.205-10.495V8.506l.473-.323c.71-.494 5.656-.494 5.85 0ZM186.167 8.398c.688.172 1.806.56 2.452.86 1.333.624 3.441 2.13 3.441 2.496 0 .344-2.968 4.258-3.334 4.387-.15.065-.774-.215-1.376-.645-3.076-2.108-7.721-2.473-8.41-.688-.451 1.226.086 1.548 4.581 2.731 3.829 1.01 5.549 1.742 6.926 3.011 1.505 1.398 1.892 2.301 2 4.71.108 2.581-.366 3.979-1.893 5.656-1.978 2.151-4.817 3.076-9.033 2.882-3.763-.172-6.022-.924-8.538-2.817-.817-.624-1.355-1.183-1.355-1.441 0-.43 2.624-4.28 3.097-4.538.172-.107.731.172 1.463.753 1.935 1.505 3.613 2.15 5.828 2.258 2.215.107 3.42-.28 3.936-1.29.667-1.29-.086-1.764-4.71-2.99-5.205-1.355-7.076-2.473-8.259-4.882-.817-1.678-.839-4.108-.022-5.871 1.226-2.689 3.528-4.302 6.947-4.926 1.42-.258 4.646-.086 6.259.344Z"/>
    <path fill="#fff" d="M79.233 9.108a7.021 7.021 0 0 1 3.72 3.441c.495.99.603 1.484.581 2.818 0 1.957-.559 3.333-1.828 4.645l-.838.86.838.689c.538.43 1.119 1.226 1.57 2.13.646 1.311.71 1.634.689 3.29 0 1.42-.108 2.086-.495 2.946-.645 1.463-2.172 2.882-3.807 3.527-1.247.495-1.355.517-9.226.517h-7.958l-.065-12.475c-.021-6.86 0-12.603.065-12.753.086-.237 1.57-.28 7.786-.216 7.506.065 7.742.087 8.968.581ZM103.171 8.657c.301.193 9.527 24.11 9.527 24.711 0 .258-.15.517-.344.581-.688.258-6.258.15-6.473-.15-.13-.13-.495-1.011-.818-1.936l-.602-1.656h-9.506l-.624 1.656c-.344.925-.731 1.806-.839 1.935-.15.194-1.053.28-3.161.28-3.29 0-3.656-.065-3.656-.667 0-.602 9.248-24.56 9.549-24.754.322-.216 6.624-.216 6.947 0ZM130.42 7.495c2.043.688 3.226 1.355 4.624 2.624 4.087 3.678 5.27 10.538 2.71 15.679a41.105 41.105 0 0 1-1.118 2.086c-.366.58-.366.602.322 1.312.366.387.689.903.689 1.161 0 .495-3.528 3.506-4.108 3.506-.215 0-.731-.43-1.183-.968l-.839-.99-1.699.453c-2.086.537-5.463.58-7.334.107-2.344-.602-4.366-1.742-6.022-3.42-2.495-2.538-3.613-5.398-3.635-9.27 0-5.096 2.56-9.42 6.818-11.484 2.344-1.161 4.216-1.549 6.925-1.441 1.592.064 2.581.237 3.85.645Z"/>
    <path fill="#000" d="M124.053 12.85c-3.076.882-4.839 3.743-4.646 7.571.215 3.957 2.775 6.56 6.453 6.56.688 0 1.247-.043 1.247-.108 0-.064-.43-.645-.968-1.312-.559-.666-.946-1.312-.903-1.462.15-.473 3.699-3.334 4.151-3.355.301 0 .774.408 1.398 1.183.516.645 1.01 1.182 1.097 1.182.301 0 .602-1.656.602-3.376 0-3.076-1.226-5.27-3.549-6.43-1.419-.668-3.398-.861-4.882-.453Zm-55.876 3.592v1.936h3.656c4.668 0 5.162-.194 5.162-2.065 0-.516-.172-.925-.538-1.269-.516-.537-.559-.537-4.408-.537h-3.872v1.935Zm0 9.678v1.936h4.151c4.452-.021 4.667-.064 5.097-1.183.172-.43.15-.817-.021-1.333-.387-1.183-1.076-1.355-5.463-1.355h-3.764v1.936Zm31.4-9.441c0 .064-.58 1.699-1.29 3.635-.71 1.935-1.29 3.591-1.29 3.699 0 .086 1.204.172 2.688.172 1.484 0 2.689-.086 2.689-.194 0-.494-2.775-7.764-2.796-7.312ZM61.49 47.39c-.495.409-.517.516-.517 3.613.022 2.646.108 3.441.495 4.689 1.054 3.42 3.334 6.022 6.796 7.742 1.871.947 44.606 18.195 48.241 19.486 3.075 1.097 5.269 1.505 9.011 1.634 3.807.13 5.85-.064 9.033-.903 1.076-.28 12.044-4.58 24.411-9.57 12.345-4.99 23.077-9.313 23.852-9.593 4.473-1.699 7.592-4.58 8.796-8.216.43-1.247.452-1.634.323-4.925-.129-3.054-.215-3.634-.56-3.978-.516-.517-1.355-.495-1.914.064-.408.409-.43.645-.365 4.022l.064 3.592-.71 1.44c-.881 1.807-2.645 3.485-4.796 4.56-2.71 1.334-47.939 19.421-49.767 19.894-2.818.71-5.334.947-8.388.818-4.775-.237-6.044-.624-19.894-6.216-6.796-2.731-17.615-7.076-24.045-9.657-6.431-2.58-12.109-4.968-12.647-5.269-1.785-1.054-3.247-2.58-4.107-4.323-.796-1.613-.796-1.613-.904-5.054-.129-3.29-.15-3.463-.645-3.85-.645-.516-1.14-.516-1.764 0Z"/>
  </g>
  <defs>
    <clipPath id="a">
      <path fill="#fff" d="M0 0h254v43.197H0z"/>
    </clipPath>
  </defs>
</svg>
